<svg width="51" height="51" viewBox="0 0 51 51" fill="none" xmlns="http://www.w3.org/2000/svg">
<mask id="mask0_5_7" style="mask-type:alpha" maskUnits="userSpaceOnUse" x="0" y="0" width="51" height="51">
<rect x="0.57453" y="0.615768" width="50" height="50" fill="#D9D9D9"/>
</mask>
<g mask="url(#mask0_5_7)">
<path d="M17.2408 42.8558H33.9083V36.5008C33.9083 34.1399 33.1008 32.1174 31.4858 30.4333C29.8716 28.7491 27.9012 27.907 25.5745 27.907C23.2479 27.907 21.2774 28.7491 19.6633 30.4333C18.0483 32.1174 17.2408 34.1399 17.2408 36.5008V42.8558ZM25.5745 23.3245C27.9012 23.3245 29.8716 22.4824 31.4858 20.7983C33.1008 19.1141 33.9083 17.0916 33.9083 14.7308V8.37577H17.2408V14.7308C17.2408 17.0916 18.0483 19.1141 19.6633 20.7983C21.2774 22.4824 23.2479 23.3245 25.5745 23.3245ZM8.54328 46.8133V42.8558H13.2833V36.5008C13.2833 34.1749 13.8474 32.0308 14.9758 30.0683C16.1041 28.1066 17.6924 26.6224 19.7408 25.6158C17.6924 24.6091 16.1041 23.1162 14.9758 21.137C13.8474 19.1579 13.2833 17.0224 13.2833 14.7308V8.37577H8.54328V4.41827H42.6058V8.37577H37.8658V14.7308C37.8658 17.0224 37.3016 19.1579 36.1733 21.137C35.0449 23.1162 33.4566 24.6091 31.4083 25.6158C33.4566 26.6224 35.0449 28.1154 36.1733 30.0945C37.3016 32.0737 37.8658 34.2091 37.8658 36.5008V42.8558H42.6058V46.8133H8.54328Z" fill="#A384FF"/>
</g>
</svg>
